<svg fill="none" height="100%" viewBox="0 0 22 22" width="100%" xmlns="http://www.w3.org/2000/svg">
    <path d="m13.8005 2.65877c1.2162-1.21622 3.0248-1.47595 4.4855-.77494.2563.12301.2502.46999.0084.61954l-2.7818 1.72062c-.0896.05541-.142.15424-.123.25787.0406.22231.1567.65341.4879 1.2248.3408.58792.7008.89272.8916 1.02536.0827.0575.1894.05254.2751-.00041l2.8971-1.78985c.2339-.14451.539-.00984.5529.26475.0548 1.07466-.3298 2.16962-1.1531 2.99286-.8842.88427-1.9631 1.38162-3.0784 1.28682-.3495-.0297-.71.05552-.958.30348l-5.51534 5.51533c-.24797.248-.33319.6086-.3035.958.09481 1.1154-.40254 2.1942-1.28681 3.0784-1.23146 1.2315-3.07062 1.482-4.54037.748-.25232-.126-.24381-.4697-.00395-.618l2.61608-1.618c.10554-.0653.1587-.1892.12514-.3087-.07283-.2592-.23012-.7339-.50894-1.2032-.27979-.4709-.62949-.8083-.82624-.9771-.09033-.0775-.21886-.0821-.32013-.0195l-2.68465 1.659c-.23584.1457-.54291.0075-.55276-.2696-.0375-1.0551.3473-2.1255 1.15523-2.9335.88476-.8847 1.98672-1.3597 3.10913-1.2578.34923.0317.70974-.0541.9577-.302l5.51541-5.51539c.2479-.24796.3336-.60847.3019-.9577-.1018-1.12241.3732-2.22437 1.2579-3.10914z" fill="#666"></path>
</svg>