<?xml version="1.0" encoding="utf-8"?>
<!-- Generator: Adobe Illustrator 26.0.2, SVG Export Plug-In . SVG Version: 6.00 Build 0)  -->
<svg version="1.1" id="Layer_1" xmlns="http://www.w3.org/2000/svg" xmlns:xlink="http://www.w3.org/1999/xlink" x="0px" y="0px"
	 viewBox="0 0 3118.2 623.7" style="enable-background:new 0 0 3118.2 623.7;" xml:space="preserve">
<style type="text/css">
	.st0{fill:#00B2A9;}
</style>
<g id="MFR_Logo">
	<g id="XMLID_53_">
		<path id="XMLID_85_" class="st0" d="M914.9,0h44.8v25.2h17.5c56.3,0,99,34.2,99,89.2c0,55.1-42.7,89.2-99,89.2h-17.5v29.5h-44.8
			v-29.5h-17.3c-56.3,0-99-34.2-99-89.2c0-55.1,42.7-89.2,99-89.2h17.5V0H914.9z M914.9,64.4h-17.3c-27.3,0-54.3,14.7-54.3,50
			c0,35.2,27,50,54.3,50h17.5v-100H914.9z M959.6,64.4v99.9h17.5c27.3,0,54.3-14.7,54.3-50c0-35.2-27-50-54.3-50L959.6,64.4
			L959.6,64.4z"/>
		<path id="XMLID_82_" class="st0" d="M1129.9,116.3c0-64,48.1-115.7,117.8-115.7s117.8,51.6,117.8,115.7
			c0,63.7-48.1,115.7-117.8,115.7C1178,232.1,1129.9,180.2,1129.9,116.3z M1320.6,116.3c0-42.5-30.7-76.5-73.1-76.5
			c-42.4,0-73.1,33.9-73.1,76.5c0,42.2,30.7,76.5,73.1,76.5C1289.9,192.8,1320.6,158.7,1320.6,116.3z"/>
		<path id="XMLID_80_" class="st0" d="M1581.5,227.7v-92h-109.9v92h-44.8V5.1h44.8v91.5h109.9V5.1h44.8v222.7L1581.5,227.7
			L1581.5,227.7z"/>
		<path id="XMLID_77_" class="st0" d="M1892.7,5.1v183.5h31.1V277h-43.7v-49.3h-155.4V277H1681v-88.5h21.9
			c16.4-17.7,22.2-51.3,22.2-83.4V5.1H1892.7z M1769.8,104.7c0,26.1-2.3,58.7-14.7,83.9h92.9V44.3h-78.2V104.7z"/>
		<path id="XMLID_74_" class="st0" d="M922.8,488.9h-67.2v85.5h-44.8V351.7h112c54,0,78.5,31.6,78.5,68.5
			C1001.3,457.3,976.7,488.9,922.8,488.9z M855.5,449.5h64.1c23.2,0,36.8-11.7,36.8-29.5c0-17.9-13.6-29.1-36.8-29.1h-64.1V449.5z"
			/>
		<path id="XMLID_72_" class="st0" d="M1104.2,390.9v52.3h112v39.2h-112V535h114.3v39.2h-159.1V351.7h159.1v39.2H1104.2z"/>
		<path id="XMLID_70_" class="st0" d="M1442.7,574.4v-92h-109.9v92H1288V351.7h44.8v91.5h109.9v-91.5h44.8v222.7H1442.7z"/>
		<path id="XMLID_67_" class="st0" d="M1548.8,462.9c0-64,48.1-115.7,117.8-115.7s117.8,51.6,117.8,115.7
			c0,63.7-48.1,115.7-117.8,115.7C1596.9,578.7,1548.8,526.6,1548.8,462.9z M1739.5,462.9c0-42.5-30.7-76.5-73.1-76.5
			s-73.1,33.9-73.1,76.5c0,42.2,30.7,76.5,73.1,76.5S1739.5,505.3,1739.5,462.9z"/>
		<path id="XMLID_63_" class="st0" d="M2025.4,415.4c0,20.2-8.8,37.9-26.3,47.6c17.5,9.7,26.3,27.5,26.3,47.6
			c0,35.2-23.9,63.7-75.4,63.7h-104.2V351.7H1950C2001.5,351.7,2025.4,380.2,2025.4,415.4z M1890.5,443.5h55
			c21.1,0,35.2-9.1,35.2-26.2c0-17.7-13.6-26.5-35.2-26.5h-55V443.5z M1890.5,535.2h55c21.1,0,35.2-8.6,35.2-25.8
			c0-17.7-13.6-26.5-35.2-26.5h-55V535.2z"/>
		<path id="XMLID_60_" class="st0" d="M2304.6,574.4h-47.4l-22.2-49.3h-103.4l-22.2,49.3h-45.8l98.6-222.7h43.7L2304.6,574.4z
			 M2149.2,485.9h67.9l-33.7-75.8L2149.2,485.9z"/>
		<path id="XMLID_58_" class="st0" d="M2538.1,623.6v-49.3h-180.9V351.7h44.8v183.5h104.2V351.7h44.8v183.5h31.1v88.5L2538.1,623.6
			L2538.1,623.6z"/>
		<path id="XMLID_56_" class="st0" d="M2796.9,574.4V417.7l-112.7,156.7h-44.8V351.7h44.8v156.5l112.7-156.7h44.8v222.7h-44.8V574.4
			z"/>
		<path id="XMLID_54_" class="st0" d="M3073.4,574.4V417.7l-112.7,156.7h-44.8V351.7h44.8v156.5l112.7-156.7h44.8v222.7h-44.8V574.4
			z"/>
	</g>
	<g id="XMLID_2_">
		<rect id="XMLID_3_" x="194.3" y="495.8" class="st0" width="389.7" height="76.5"/>
		<polygon id="XMLID_51_" class="st0" points="584,266.2 584,189.7 389.1,189.7 389.1,0 0,0 0,382.2 194.3,382.2 194.3,419.3 
			584,419.3 584,342.7 194.6,342.7 194.6,266.2 		"/>
	</g>
</g>
</svg>
