<svg width="38" height="38" xmlns="http://www.w3.org/2000/svg"><path d="m4.2 28 12.3-7.5 18.1 6.2-16.1 8.8L4.2 28z" stroke="#F25767" fill="none"/><path d="M4 13.818v14.2L18.091 35.4c.009 0 1.969-9.177 3.523-12.3C24.642 17.006 31.83 7.35 31.83 7.35S20.212 2.773 18.498 1.932c-1.714-.841-3.877-1.379-6.396-.376C7.238 3.493 4 8.651 4 13.817z" fill="#E0DACD"/><path d="M18.1 21.518V35.7l2.9-1.4-.1-11.3 11.3 4.7 2.8-1.1V13.4c0-5.163-4-6.7-8.8-4.7-4.9 1.9-8.1 7.7-8.1 12.8z" fill="#C2BBAD"/><path d="M21 20.3v2.8l11 4.8V15.1c0-3.1-2.2-4.7-5.1-3.5-2.9 1.2-5.9 5.6-5.9 8.7z" fill="#9C9689"/><circle fill="#E96B7C" cx="18.5" cy="35.5" r="2.5"/><circle fill="#E96B7C" cx="4.5" cy="28.5" r="2.5"/><circle fill="#E96B7C" cx="35.5" cy="26.5" r="2.5"/><circle fill="#fff" cx="18.5" cy="35.5" r="1.5"/><circle fill="#fff" cx="4.5" cy="28.5" r="1.5"/><circle fill="#fff" cx="35.5" cy="26.5" r="1.5"/></svg>